<svg version="1" xmlns="http://www.w3.org/2000/svg" width="266.667" height="266.667" viewBox="0 0 200.000000 200.000000"><path d="M11.8 14.8l-7.7.3 2.6 4.7c1.4 2.6 5.7 10.1 9.6 16.7 3.8 6.6 13.9 24.1 22.4 39 8.6 14.8 15.9 27.4 16.3 28 .4.5 2.4 4.1 4.5 8 2.1 3.8 4.4 7.7 5.1 8.6.8.8 1.4 1.8 1.4 2.1 0 .3 6.9 12.4 15.3 26.9 8.3 14.6 15.8 27.7 16.6 29.1.8 1.5 1.8 2.5 2.2 2.2.7-.4 13.2-21.5 19.2-32.4 1.6-3 3.8-6.6 4.7-8 .9-1.4 3.1-5 4.7-8 1.7-3 17.4-30.5 35.1-61 17.6-30.5 31.9-55.6 31.7-55.8-.4-.4-173.5-.8-183.7-.4z"/></svg>